Two Formats: FLAC/MP3

(FILE 1)
Format : FLAC 
Format/Info : Free Lossless Audio Codec 
Duration : 5mn 16s 
Bit rate mode : Variable 
Bit rate : 1 125 Kbps 
Channel(s) : 2 channels 
Sampling rate : 44.1 KHz 
Bit depth : 16 bits 
Stream size : 42.5 MiB  
Writing library : libFLAC 1.2.1 (UTC 2007-09-17)

(FILE 2)
Format : MPEG Audio 
Format version : Version 1 
Format profile : Layer 3 
Mode : Joint stereo 
Duration : 5mn 16s 
Bit rate mode : Constant 
Bit rate : 320 Kbps 
Channel(s) : 2 channels 
Sampling rate : 44.1 KHz 
Compression mode : Lossy 
Stream size : 12.1 MiB  
Writing library : LAME3.98r 
Encoding settings : -m j -V 4 -q 2 -lowpass 20.5